/* XPM */
static char *d026ac9ce5894404dc81f58b9e2ec15fgW8xOZ8xWVif1Pbk[] = {
/* columns rows colors chars-per-pixel */
"32 32 227 2 ",
"   c #030401",
".  c #0C0401",
"X  c #060904",
"o  c #0A0B06",
"O  c #0D0D0A",
"+  c #110F0B",
"@  c #160A05",
"#  c #0E110C",
"$  c #071106",
"%  c #12120D",
"&  c #1D150F",
"*  c #191007",
"=  c #0C0F11",
"-  c #161B12",
";  c #230E09",
":  c #3B150B",
">  c #251C16",
",  c #291D19",
"<  c #391413",
"1  c #3B1C16",
"2  c #351815",
"3  c #370E0B",
"4  c #262219",
"5  c #3C241F",
"6  c #35251D",
"7  c #282923",
"8  c #3B2823",
"9  c #3F3126",
"0  c #421C1C",
"q  c #481713",
"w  c #551F1D",
"e  c #49221A",
"r  c #46261C",
"t  c #4C2C24",
"y  c #472926",
"u  c #562B24",
"i  c #443129",
"p  c #4B322A",
"a  c #52342B",
"s  c #5D3429",
"d  c #4E3836",
"f  c #5B3731",
"g  c #622926",
"h  c #653729",
"j  c #673938",
"k  c #7E362C",
"l  c #5A4238",
"z  c #47423C",
"x  c #6C4434",
"c  c #664239",
"v  c #694839",
"b  c #734D35",
"n  c #724C3B",
"m  c #794D3D",
"M  c #78493A",
"N  c #75503C",
"B  c #7A523C",
"V  c #765136",
"C  c #7B402E",
"Z  c #5A4D43",
"A  c #5A5149",
"S  c #5D5D55",
"D  c #734B44",
"F  c #794745",
"G  c #695447",
"H  c #7D5343",
"J  c #785547",
"K  c #6D534D",
"L  c #76685D",
"P  c #696A64",
"I  c #766C62",
"U  c #7E7977",
"Y  c #74756F",
"T  c #823B37",
"R  c #8B4B3B",
"E  c #814738",
"W  c #924F3F",
"Q  c #83543C",
"!  c #8B523F",
"~  c #91503E",
"^  c #834D41",
"/  c #8B4C43",
"(  c #8C5342",
")  c #8B5A45",
"_  c #855A4D",
"`  c #8B5D4E",
"'  c #865548",
"]  c #955544",
"[  c #935D4B",
"{  c #985848",
"}  c #8B5752",
"|  c #935D56",
" . c #A25D4C",
".. c #95634B",
"X. c #9D624E",
"o. c #8A6657",
"O. c #9B6653",
"+. c #986757",
"@. c #89604E",
"#. c #A46352",
"$. c #A96555",
"%. c #A46C5A",
"&. c #A46A58",
"*. c #B26857",
"=. c #A7715B",
"-. c #B05E60",
";. c #847C73",
":. c #927869",
">. c #A36E62",
",. c #A47164",
"<. c #AC7465",
"1. c #A87969",
"2. c #B37262",
"3. c #B27B65",
"4. c #BD7B6B",
"5. c #B77869",
"6. c #B57E71",
"7. c #B87C74",
"8. c #B4656B",
"9. c #C67C6C",
"0. c #C47568",
"q. c #C07570",
"w. c #9F806E",
"e. c #88837B",
"r. c #98867C",
"t. c #BD836C",
"y. c #AF8070",
"u. c #B58471",
"i. c #BD8474",
"p. c #BC8378",
"a. c #CB8574",
"s. c #C48A74",
"d. c #CB8C74",
"f. c #C78C7B",
"g. c #CC8B7A",
"h. c #C58478",
"j. c #D28D7C",
"k. c #DA8B7C",
"l. c #CB9077",
"z. c #CD927C",
"x. c #D3927C",
"c. c #D8987E",
"v. c #C7836C",
"b. c #798183",
"n. c #968C85",
"m. c #98938B",
"M. c #9D9B94",
"N. c #888783",
"B. c #A49A8C",
"V. c #BA9A89",
"C. c #A49F94",
"Z. c #A69E97",
"A. c #9FA49E",
"S. c #ACA59B",
"D. c #AEA497",
"F. c #BAA698",
"G. c #ACACA2",
"H. c #A7A5A1",
"J. c #B2ADA3",
"K. c #B6AEA7",
"L. c #ADB2AB",
"P. c #B4B2AB",
"I. c #B3BAAC",
"U. c #BBB3A9",
"Y. c #B4B9B0",
"T. c #C88C82",
"R. c #CC9C89",
"E. c #CB9784",
"W. c #D59483",
"Q. c #DA9584",
"!. c #D49A84",
"~. c #DB9B84",
"^. c #DD9C8A",
"/. c #D6988B",
"(. c #C19492",
"). c #D58D81",
"_. c #E39B84",
"`. c #E29E8C",
"'. c #E19585",
"]. c #E59E91",
"[. c #DDA28E",
"{. c #DAA58A",
"}. c #DDA593",
"|. c #D4A595",
" X c #C2A38E",
".X c #E3A28C",
"XX c #E8A28D",
"oX c #E2A086",
"OX c #E4A392",
"+X c #EBA494",
"@X c #E3AD96",
"#X c #EBA995",
"$X c #EBAB9A",
"%X c #E7A899",
"&X c #F4A898",
"*X c #ECB19E",
"=X c #F5B39D",
"-X c #C6B6A9",
";X c #C3BCB3",
":X c #D5BEB8",
">X c #ECB6A1",
",X c #F2B5A6",
"<X c #E4A9A5",
"1X c #CAC2B7",
"2X c #D4C5BC",
"3X c #FAC3AE",
"4X c #F0C0B2",
"5X c #D5CEC5",
"6X c #DEDAD1",
"7X c #DCDED9",
"8X c #DFD5CB",
"9X c #E2DED3",
"0X c #E7D6CC",
"qX c #DEE2DB",
"wX c #E4E3DC",
"eX c #E9E5DC",
"rX c #E8E9DD",
"tX c #E6E5DA",
"yX c #F0E3DA",
"uX c #E6E9E2",
"iX c #EBEBE2",
"pX c #F2EBE4",
"aX c #F6ECE5",
"sX c #EBF4E7",
"dX c #FDF6EA",
"fX c #F5F2EB",
"gX c #F9F9F1",
/* pixels */
"L.J.J.I.Y.U.U.I.U.V.V.R.!.s.6.6.3.5.&.X.O.@.:.-X;XS.S.C.C.C.S.G.",
"H.G.J.G.L.P.U.J.V.V.R.!.l.t.<.%.=.%...! ) ' J o.D.D.C.P.J.D.S.J.",
"H.G.P.K.P.I.K.V.!.!.!.l.l.s.3.&.+.....Q Q Q H H r.1X-X;X1X;XU.1X",
"H.G.P.P.Y.I.F.R.x.x.x.l.z.l.3.O.O.) ) Q b V B B G F.8X9XfXdX9X5X",
"G.G.G.H.Z.C.V.x.x.x.z.g.z.f.3.&.[ Q V b V V b b v :.dXgXeXtXeX6X",
"m.m.n.n.m.B.R._.~.~.z.s.z.z.5.%.+.[ ^ b B B b b x G yXgXwXtXeX6X",
"U e.e.M.Z.V.[.oX!.!.x.d.x.s.%.[ +.` _ B b b b b b v 2XfXwXwXeXwX",
";X5X6XsX0X|.OX.X.X~.c.x.d.=.) ` N x b H m m B B N l S.gX7XwXiXwX",
"fXgXaXdX-X|.@X{..X~.!.!.x.4.<.+.` m h h b b N H m c r.pXqXuXuXwX",
"aXpX(.(.w.}.$XXX_..X[.$X!.] E m x _ _ u s h x n x a r.pXqXqXuXiX",
"iX:X8.^.u.}..X+XXX^.^.!.#.E +.+.n t e D h h n a c a n.iXwXuXrXiX",
"sX-X-.&X@X{.@X}..X`.^.=.C O.1.q p t 3 q ^ ,.c 5 l i n.pXwXwXrXrX",
"sX2Xq.*.x.=X@X}.#XOXf.[ ( u.1.e i 1 3 s p.,.1 * 2 ; ;.iXwXwXiXrX",
"pX0XT k _.&X#X@XOXW.4.&.&.1.@.c a r e ' /.>.2 . ; , A e.Y P S S ",
"fXaXh.#..X&XXX^.OXx.2.#.#.%.` c u n +.p.Q.T.t @ @ , % o o X   + ",
"Y.S.<XOX@X#X`.`.+Xj.#.{ { ( ' J ` 1.,.t.Q.T.D , > > o % % # % + ",
"- . n.4X~.%X].~.&X`. .R R R ! ) X.=.4.W.`.f.H t a 8 o = = O o % ",
"4 Z.I R.g.OX+X~.+Xa. .W R ! ] ] ] 4.Q.+XOXf.' f a 6 O = O O o = ",
"- M.I u..X$X]..X%X4. .W ] #.X.{ { a.Q.).OXT._ f i > O O o o o # ",
"- P e.R.`.~.`.#X+Xg.$.] #.5.2.$. .Q.].h.Q.<.} D 6 & # O o o o O ",
"$ P ;.R.c.`.&X#XOXQ.4.5.5.j.W.g.$.g.{ k 7.| u t > + % O o o o O ",
"o N.;.|._.~.&X=X$XW.g.^.j.OX%XW.2./ g } | s < 1 & O + o o X o o ",
"o U A R._.x.&X=X#Xg.W.#X[.$X}.i.%.} j D e 1 p i O O O o o   o o ",
"7 U L }._.Q.+X=X#Xx.OX$X*X,X/.6.+.' D j 0 2 d , o % O X O   O O ",
"b.M.F.%Xk.x..X=X#X!.*X3X>X@X<.' } F j j y 5 8 * O + o o o     o ",
"A.B.R.^.j.l.x..X^.^.*X3XE.&.^ h g w q < < ; , & # % o   X o o   ",
"K.V.~.Q.d.s.a.'.Q.OX,X>X&.( ,.| F F j y 0 y L & O o o o       o ",
" Xz.XX~.d.9.9.j.W.^.,X}.[ O.p.[ F j 0 < 2 d e.* o   o o X X     ",
"z.c.XXc.d.0.9.5.4.a.^.E.X...<.( F u 0 2 8 d L A 4 @           X ",
"v.~.{.c.a.0.0.%. .2.i.E.s.%.3.3.| D f p y 8 l I L i & .   X     ",
"*.l.c.c.j.4.2.#.~ &.<.6.T.u.<.%.F f y 8 6 6 9 G G G Z >         ",
"X.t.l.'.Q.i.%.{ R #.<.^ ^ ,.>.+.M t t i 8 8 6 L J v K G z 7 % O "
};
